<?xml version="1.0" encoding="UTF-8" standalone="no"?>
<svg
   id="Layer_1"
   version="1.1"
   viewBox="0 0 500 500"
   sodipodi:docname="grant-isologo.svg"
   width="500"
   height="500"
   inkscape:version="1.4.3 (0d15f75042, 2025-12-25)"
   inkscape:export-filename="grant-isologo.png"
   inkscape:export-xdpi="72"
   inkscape:export-ydpi="72"
   xmlns:inkscape="http://www.inkscape.org/namespaces/inkscape"
   xmlns:sodipodi="http://sodipodi.sourceforge.net/DTD/sodipodi-0.dtd"
   xmlns="http://www.w3.org/2000/svg"
   xmlns:svg="http://www.w3.org/2000/svg">
  <defs
     id="defs5" />
  <sodipodi:namedview
     id="namedview5"
     pagecolor="#505050"
     bordercolor="#ffffff"
     borderopacity="1"
     inkscape:showpageshadow="0"
     inkscape:pageopacity="0"
     inkscape:pagecheckerboard="1"
     inkscape:deskcolor="#505050"
     inkscape:zoom="1.233"
     inkscape:cx="94.484996"
     inkscape:cy="228.30495"
     inkscape:window-width="1920"
     inkscape:window-height="1011"
     inkscape:window-x="0"
     inkscape:window-y="0"
     inkscape:window-maximized="1"
     inkscape:current-layer="Layer_1" />
  <!-- Generator: Adobe Illustrator 29.8.1, SVG Export Plug-In . SVG Version: 2.1.1 Build 2)  -->
  <circle
     style="fill:#000000;fill-opacity:1;stroke:#666666;stroke-width:3.98707;stroke-dasharray:none;paint-order:fill markers stroke"
     id="path6"
     cx="249.70345"
     cy="-249.70345"
     r="248.08784"
     transform="scale(1,-1)" />
  <path
     d="m 295.11633,109.73631 v 16.85799 c -5.02638,-4.81952 -10.83877,-8.95645 -17.49922,-12.32805 -11.39725,-5.77102 -24.49064,-8.64619 -39.32154,-8.64619 -17.85085,0 -33.90215,4.32309 -48.15389,12.96928 -14.27241,8.64619 -25.46281,20.37439 -33.55051,35.20529 -8.0877,14.8309 -12.14189,31.56479 -12.14189,50.22235 0,18.65755 4.05419,35.53624 12.14189,50.63604 8.0877,15.0998 19.2781,26.95211 33.55051,35.5983 14.27242,8.64618 30.32371,12.96928 48.15389,12.96928 14.54132,0 27.5106,-2.81312 38.90783,-8.43934 6.61911,-3.26819 12.45218,-7.36375 17.49923,-12.22464 v 16.54773 c 0,15.09979 -4.88158,26.89006 -14.60337,35.41213 -9.74246,8.5014 -22.98066,12.76244 -39.71454,12.76244 -13.44503,0 -24.90433,-2.39943 -34.3779,-7.19826 -9.47357,-4.79884 -18.05771,-11.7282 -25.73172,-20.78808 l -34.17105,34.17105 c 9.59769,13.71393 22.5049,24.34584 38.701,31.89574 16.19608,7.5499 34.85365,11.31451 55.99336,11.31451 21.13972,0 39.79728,-4.11625 55.99337,-12.34873 16.19609,-8.2325 28.87578,-19.6918 38.08046,-34.37791 9.18398,-14.68611 13.79666,-31.89574 13.79666,-51.67028 V 109.73631 h -53.51121 z m -3.28887,120.40539 c -4.11624,7.5499 -9.8252,13.44503 -17.08552,17.70607 -7.281,4.26104 -15.84445,6.37087 -25.73172,6.37087 -9.88727,0 -18.53346,-2.19257 -25.93856,-6.57772 -7.40511,-4.38514 -13.17613,-10.36301 -17.29237,-17.91291 -4.11625,-7.54991 -6.18472,-15.98925 -6.18472,-25.31802 0,-9.32878 2.06847,-18.18182 6.18472,-25.73172 4.11624,-7.5499 9.88726,-13.44503 17.29237,-17.70607 7.4051,-4.26104 16.05129,-6.39156 25.93856,-6.39156 9.88727,0 18.45072,2.13052 25.73172,6.39156 7.26032,4.26104 12.96928,10.09411 17.08552,17.49922 4.11625,7.4051 6.18471,16.05129 6.18471,25.93857 0,9.88727 -2.06846,18.18182 -6.18471,25.73171 z"
     id="path5-6"
     style="fill:#ffffff;stroke-width:2.06846" />
</svg>
