<?xml version="1.0" encoding="UTF-8" standalone="no"?>
<svg
   id="Layer_1"
   version="1.1"
   viewBox="0 0 500 500"
   sodipodi:docname="favicon.svg"
   width="500"
   height="500"
   inkscape:version="1.4.3 (0d15f75042, 2025-12-25)"
   inkscape:export-filename="grant-isologo.png"
   inkscape:export-xdpi="72"
   inkscape:export-ydpi="72"
   xmlns:inkscape="http://www.inkscape.org/namespaces/inkscape"
   xmlns:sodipodi="http://sodipodi.sourceforge.net/DTD/sodipodi-0.dtd"
   xmlns="http://www.w3.org/2000/svg"
   xmlns:svg="http://www.w3.org/2000/svg">
  <defs
     id="defs5" />
  <sodipodi:namedview
     id="namedview5"
     pagecolor="#505050"
     bordercolor="#ffffff"
     borderopacity="1"
     inkscape:showpageshadow="0"
     inkscape:pageopacity="0"
     inkscape:pagecheckerboard="1"
     inkscape:deskcolor="#505050"
     inkscape:zoom="1.233"
     inkscape:cx="94.484996"
     inkscape:cy="228.30495"
     inkscape:window-width="1920"
     inkscape:window-height="1011"
     inkscape:window-x="0"
     inkscape:window-y="0"
     inkscape:window-maximized="1"
     inkscape:current-layer="Layer_1" />
  <!-- Generator: Adobe Illustrator 29.8.1, SVG Export Plug-In . SVG Version: 2.1.1 Build 2)  -->
  <path
     d="m 309.45878,67.967545 v 21.83737 C 302.94775,83.561843 295.41854,78.20298 286.79078,73.835503 272.0271,66.359885 255.06629,62.63547 235.85476,62.63547 c -23.1235,0 -43.9159,5.60001 -62.37721,16.800043 -18.48808,11.200034 -32.98381,26.392417 -43.46039,45.603947 -10.47659,19.21154 -15.72827,40.88815 -15.72827,65.05664 0,24.16847 5.25168,46.03265 15.72827,65.59251 10.47658,19.55986 24.97231,34.91301 43.46039,46.11304 18.4881,11.20002 39.28049,16.80005 62.37721,16.80005 18.83642,0 35.63646,-3.64404 50.40011,-10.93209 8.57421,-4.23352 16.13021,-9.53879 22.66802,-15.83546 v 21.43547 c 0,19.55985 -6.32346,34.83264 -18.9168,45.87189 -12.62011,11.01247 -29.76851,16.53211 -51.44511,16.53211 -17.41631,0 -32.26037,-3.10816 -44.53217,-9.32443 -12.2718,-6.21628 -23.39145,-15.19238 -33.33215,-26.9283 l -44.26423,44.26423 c 12.43258,17.76464 29.15222,31.53692 50.1322,41.31685 20.97995,9.77993 45.14845,14.6565 72.53224,14.6565 27.3838,0 51.55228,-5.33208 72.53225,-15.9962 20.97996,-10.66415 37.40488,-25.50821 49.32836,-44.53219 11.89667,-19.02397 17.87181,-41.31685 17.87181,-66.93224 V 67.967545 h -69.31693 z m -4.26031,155.969785 c -5.33206,9.77993 -12.72729,17.41632 -22.1321,22.93595 -9.43161,5.51963 -20.52446,8.25265 -33.33215,8.25265 -12.8077,0 -24.00773,-2.8402 -33.60009,-8.5206 -9.59237,-5.68039 -17.06799,-13.42395 -22.40006,-23.20388 -5.33207,-9.77995 -8.01151,-20.71203 -8.01151,-32.79626 0,-12.08424 2.67944,-23.55222 8.01151,-33.33215 5.33207,-9.77993 12.80769,-17.41632 22.40006,-22.93595 9.59236,-5.51963 20.79239,-8.27945 33.60009,-8.27945 12.80769,0 23.90054,2.75982 33.33215,8.27945 9.40481,5.51963 16.80004,13.07563 22.1321,22.668 5.33208,9.59236 8.0115,20.79239 8.0115,33.6001 0,12.80769 -2.67942,23.55222 -8.0115,33.33214 z"
     id="path5-6"
     style="fill:#ffffff;stroke-width:2.67943" />
</svg>
